<?xml version="1.0" encoding="utf-8"?>
<!-- Generator: Adobe Illustrator 24.3.0, SVG Export Plug-In . SVG Version: 6.00 Build 0)  -->
<svg version="1.1" id="Layer_1" xmlns="http://www.w3.org/2000/svg" xmlns:xlink="http://www.w3.org/1999/xlink" x="0px" y="0px"
	 viewBox="0 0 200 121.2" style="enable-background:new 0 0 200 121.2;" xml:space="preserve">
<style type="text/css">
	.st0{fill:#8F9094;}
	.st1{fill:#FFFFFF;}
</style>
<g>
	<path class="st0" d="M0,68.2V53c3.1-0.2,5.4-0.6,6.9-1.4s2.9-2,4-3.8s1.9-4,2.3-6.7c0.3-2,0.5-5.5,0.5-10.5
		c0-8.1,0.4-13.8,1.1-17.1s2.1-5.8,4.1-7.8s4.9-3.5,8.6-4.6C30.2,0.4,34.3,0,39.8,0h3.3v15.1c-4.7,0-7.7,0.3-9,0.8s-2.3,1.3-2.9,2.4
		c-0.6,1.1-1,2.9-1,5.5c0,2.6-0.2,7.7-0.6,15.1c-0.2,4.2-0.8,7.5-1.6,10.1s-2,4.7-3.4,6.4c-1.4,1.7-3.5,3.4-6.3,5.2
		c2.5,1.4,4.5,3.1,6.1,5c1.6,1.9,2.8,4.2,3.6,7s1.4,6.4,1.6,11c0.3,7,0.4,11.4,0.4,13.4c0,2.8,0.3,4.7,1,5.8
		c0.7,1.1,1.7,1.9,3.1,2.5s4.3,0.8,8.9,0.8v15.1h-3.3c-5.7,0-10-0.4-13-1.4c-3-0.9-5.6-2.4-7.7-4.5s-3.5-4.7-4.2-7.8
		c-0.7-3.1-1.1-8-1.1-14.6c0-7.7-0.3-12.8-1-15.1c-0.9-3.4-2.3-5.8-4.2-7.2C6.7,69.2,3.9,68.4,0,68.2z"/>
	<path class="st1" d="M55.6,106.8V14.4h27.9l16.8,63l16.6-63h28v92.4h-17.3V34l-18.3,72.8h-18L72.9,34v72.8H55.6z"/>
	<path class="st0" d="M200,68.2c-3.1,0.2-5.4,0.6-6.9,1.4s-2.9,2-4,3.8c-1.1,1.8-1.9,4-2.4,6.7c-0.3,2-0.5,5.5-0.5,10.5
		c0,8.2-0.4,13.8-1.1,17.1c-0.7,3.2-2.1,5.8-4.1,7.8c-2,1.9-4.9,3.5-8.7,4.6c-2.6,0.8-6.6,1.1-12.1,1.1h-3.3v-15.1
		c4.5,0,7.4-0.3,8.8-0.8s2.4-1.4,3.1-2.5s1-2.9,1-5.4s0.2-7.5,0.5-14.7c0.2-4.4,0.8-7.9,1.7-10.5s2.1-4.8,3.7-6.7
		c1.5-1.8,3.5-3.4,5.9-4.8c-3.1-2-5.4-4-6.8-5.9c-2-2.8-3.3-6.3-4-10.6c-0.5-2.9-0.8-9.4-1-19.4c0-3.1-0.3-5.2-0.9-6.3
		c-0.5-1-1.5-1.9-2.8-2.4s-4.4-0.9-9.2-0.9V0h3.3c5.7,0,10,0.4,13.1,1.3c3,0.9,5.6,2.4,7.6,4.5s3.5,4.7,4.2,7.8
		c0.7,3.1,1.1,8,1.1,14.6c0,7.7,0.3,12.7,0.9,15.1c0.9,3.4,2.3,5.8,4.2,7.2s4.8,2.3,8.6,2.5L200,68.2L200,68.2z"/>
</g>
</svg>
